<svg width="16" height="16" viewBox="0 0 16 16" fill="none" xmlns="http://www.w3.org/2000/svg">
<g clip-path="url(#clip0_3082_39795)">
<path d="M12.9532 8.65398C12.9799 8.44065 12.9999 8.22732 12.9999 8.00065C12.9999 7.77398 12.9799 7.56065 12.9532 7.34732L14.3599 6.24732C14.4866 6.14732 14.5199 5.96732 14.4399 5.82065L13.1066 3.51398C13.0266 3.36732 12.8466 3.31398 12.6999 3.36732L11.0399 4.03398C10.6932 3.76732 10.3199 3.54732 9.91323 3.38065L9.65989 1.61398C9.63989 1.45398 9.49989 1.33398 9.33323 1.33398H6.66656C6.49989 1.33398 6.35989 1.45398 6.33989 1.61398L6.08656 3.38065C5.67989 3.54732 5.30656 3.77398 4.95989 4.03398L3.29989 3.36732C3.14656 3.30732 2.97323 3.36732 2.89323 3.51398L1.55989 5.82065C1.47323 5.96732 1.51323 6.14732 1.63989 6.24732L3.04656 7.34732C3.01989 7.56065 2.99989 7.78065 2.99989 8.00065C2.99989 8.22065 3.01989 8.44065 3.04656 8.65398L1.63989 9.75398C1.51323 9.85398 1.47989 10.034 1.55989 10.1807L2.89323 12.4873C2.97323 12.634 3.15323 12.6873 3.29989 12.634L4.95989 11.9673C5.30656 12.234 5.67989 12.454 6.08656 12.6207L6.33989 14.3873C6.35989 14.5473 6.49989 14.6673 6.66656 14.6673H9.33323C9.49989 14.6673 9.63989 14.5473 9.65989 14.3873L9.91323 12.6207C10.3199 12.454 10.6932 12.2273 11.0399 11.9673L12.6999 12.634C12.8532 12.694 13.0266 12.634 13.1066 12.4873L14.4399 10.1807C14.5199 10.034 14.4866 9.85398 14.3599 9.75398L12.9532 8.65398ZM7.99989 10.334C6.71323 10.334 5.66656 9.28732 5.66656 8.00065C5.66656 6.71398 6.71323 5.66732 7.99989 5.66732C9.28656 5.66732 10.3332 6.71398 10.3332 8.00065C10.3332 9.28732 9.28656 10.334 7.99989 10.334Z" fill="currentColor"/>
</g>
<defs>
<clipPath id="clip0_3082_39795">
<rect width="16" height="16" fill="currentColor"/>
</clipPath>
</defs>
</svg>
